<?xml version="1.0" encoding="UTF-8" standalone="no"?>
<svg
   id="Livello_1"
   data-name="Livello 1"
   version="1.1"
   viewBox="0 0 841.89 595.28"
   sodipodi:docname="9b08caa3-abfd-4f89-9408-7392a9911974.svgz"
   xmlns:inkscape="http://www.inkscape.org/namespaces/inkscape"
   xmlns:sodipodi="http://sodipodi.sourceforge.net/DTD/sodipodi-0.dtd"
   xmlns="http://www.w3.org/2000/svg"
   xmlns:svg="http://www.w3.org/2000/svg">
  <defs
     id="defs1">
    <style
       id="style1">
      .cls-1 {
        fill: #000;
        stroke-width: 0px;
      }
    </style>
  </defs>
  <path
     class="cls-1"
     d="M391.22,379.99c-22.2-.58-43.96-3.78-63.61-15.79-6.05-3.7-9.24-8.55-9.94-15.83-2.67-27.59-5.49-55.17-8.88-82.68-2.38-19.33,12.71-26.81,26.44-20.74,8.52,3.77,16.17,9.93,23.44,15.94,4.98,4.12,8.67,9.8,12.88,14.83,13.55,16.21,42.55,23.94,63.74,2.84,7.19-7.17,15.53-13.72,24.46-18.46,8.8-4.67,12.37-1.08,11.32,9.07-2.64,25.31-5.59,50.6-7.73,75.95-.88,10.51-5.57,16.93-14.84,21.65-18,9.18-37.15,12.52-57.27,13.21Z"
     id="path1" />
  <path
     class="cls-1"
     d="M428.14,203.7c-23.65,5.13-48.11,5.31-71.93,1.05-1.28-.23-2.55-.46-3.82-.7-4.1-.78-8.11-2.83-11.78-4.97-8.32-4.86-8.93-14.22-.42-18.61,7.67-3.96,16.4-6.42,24.95-8.04,21.89-4.16,43.77-3.13,65.13,3.4,6.99,2.13,15.74,3.88,15.62,13.81-.12,9.78-8.59,12.01-15.78,13.63-.66.15-1.31.29-1.97.44Z"
     id="path2" />
  <path
     class="cls-1"
     d="M330.66,201.97c25.9,20.41,92.65,20.56,120.83-1.1,2.48,4.18,5.85,7.9,6.94,12.19,1.52,5.98-2.65,10.65-7.8,12.37-12.12,4.04-24.39,8.65-36.94,10.15-24.66,2.95-49.44,2.35-73.45-5.53-3.56-1.17-7.16-2.56-10.32-4.51-11.47-7.09-11.08-16.99.73-23.57Z"
     id="path3" />
</svg>
